<svg width="433" height="129" viewBox="0 0 433 129" fill="none" xmlns="http://www.w3.org/2000/svg">
<g clip-path="url(#clip0)">
<path d="M61.8194 70.2374C63.9301 67.4745 67.8595 67.027 70.5374 69.2446L87.0969 82.9575C88.351 83.996 89.1579 85.4934 89.344 87.1277L92.3387 113.424C92.731 116.869 90.3142 119.973 86.9405 120.357L57.3289 123.729C53.9552 124.113 50.9023 121.632 50.51 118.188L47.5153 91.8913C47.3292 90.257 47.7787 88.6165 48.7672 87.3226L61.8194 70.2374Z" fill="white"/>
<path d="M60.3718 58.7242C63.0457 60.9273 66.9583 60.4817 69.0684 57.7338L82.001 40.8924C82.9959 39.5967 83.4491 37.951 83.2624 36.3114L80.3191 10.4668C79.9268 7.02208 76.8739 4.54107 73.5003 4.92527L44.1794 8.26441C40.8058 8.64861 38.3889 11.7525 38.7812 15.1972L41.7245 41.0418C41.9112 42.6815 42.7227 44.1832 43.9835 45.2219L60.3718 58.7242Z" fill="white"/>
<path d="M56.4622 60.9708C59.0069 63.126 59.4411 66.9384 57.4462 69.6106L44.9512 86.3472C43.9388 87.7033 42.4265 88.5768 40.7634 88.7662L15.1152 91.6871C11.7415 92.0713 8.68865 89.5903 8.29636 86.1456L4.85309 55.9105C4.4608 52.4658 6.87766 49.3619 10.2513 48.9777L35.8995 46.0568C37.5626 45.8674 39.2327 46.3786 40.524 47.4722L56.4622 60.9708Z" fill="white"/>
<path d="M73.0883 58.94C71.1091 61.607 71.5411 65.4004 74.0693 67.5541L89.7707 80.9292C91.0637 82.0307 92.7396 82.5463 94.4087 82.3562L119.613 79.4858C122.987 79.1016 125.404 75.9977 125.011 72.5531L121.602 42.6148C121.21 39.1701 118.157 36.6891 114.783 37.0733L89.5787 39.9437C87.9095 40.1337 86.3925 41.013 85.3802 42.3769L73.0883 58.94Z" fill="white"/>
<path d="M243.478 62.9392C243.665 63.6022 244.04 64.3125 244.602 65.0702C245.164 65.8279 245.446 66.3961 245.446 66.775C244.696 68.5745 244.134 69.9952 243.759 71.037C243.384 71.9841 242.775 72.8365 241.931 73.5942C241.931 73.8783 241.65 74.494 241.088 75.4411C240.526 76.3882 239.87 77.43 239.12 78.5665C238.464 79.6084 237.761 80.6502 237.011 81.692C236.355 82.6391 235.934 83.3021 235.746 83.681C235.278 84.4386 234.903 85.1963 234.622 85.954C234.341 86.617 234.013 87.28 233.638 87.943C232.794 89.4583 231.904 90.879 230.967 92.205C230.124 93.5309 229.327 94.9989 228.577 96.609C228.109 97.0826 227.687 97.6035 227.312 98.1718C226.937 98.74 226.516 99.261 226.047 99.7345C224.923 101.818 223.611 103.76 222.111 105.559C220.705 107.359 219.393 109.348 218.175 111.526C219.206 112.568 219.721 113.894 219.721 115.504C219.721 116.356 219.487 116.83 219.019 116.925C218.55 116.925 218.128 117.019 217.754 117.209C216.816 117.872 215.973 118.251 215.223 118.345C214.474 118.44 213.864 118.487 213.396 118.487C212.365 118.487 211.241 118.44 210.022 118.345C208.804 118.345 207.773 118.44 206.93 118.629C206.649 118.724 206.321 118.866 205.946 119.056C205.571 119.34 205.29 119.482 205.102 119.482C204.353 119.482 203.79 119.34 203.416 119.056C203.134 118.866 202.713 118.677 202.15 118.487C201.401 117.635 200.698 116.735 200.042 115.788C199.48 114.841 198.87 113.894 198.215 112.947C197.652 112.284 197.043 111.715 196.387 111.242C195.731 110.674 195.122 110.011 194.56 109.253C193.06 107.075 191.514 104.991 189.921 103.002C188.422 101.013 186.875 99.0242 185.282 97.0352C184.533 95.9934 183.689 94.9989 182.752 94.0518C181.909 93.1047 181.112 92.1576 180.362 91.2105C179.613 90.1687 178.91 89.0795 178.254 87.943C177.598 86.8064 176.895 85.7172 176.145 84.6754C175.583 83.7283 174.786 82.5918 173.756 81.2658C172.725 79.8451 171.647 78.4245 170.523 77.0038C169.398 75.5831 168.227 74.2572 167.008 73.0259C165.884 71.7 164.9 70.7055 164.056 70.0425C164.056 69.3796 163.869 68.906 163.494 68.6219C163.119 68.3377 162.698 68.0062 162.229 67.6274C162.042 67.1538 161.807 66.7276 161.526 66.3488C161.245 65.8752 161.104 65.3543 161.104 64.7861C161.104 64.1231 161.245 63.5075 161.526 62.9392C161.714 62.5603 161.807 62.2289 161.807 61.9447C161.901 61.5659 162.042 61.187 162.229 60.8082C162.698 59.5769 163.354 58.4878 164.197 57.5406C165.134 56.5935 165.837 55.5044 166.305 54.2731C166.399 53.8943 166.446 53.5628 166.446 53.2786C166.446 52.8998 166.54 52.5209 166.727 52.1421C167.008 51.4791 167.43 50.9109 167.992 50.4373C168.555 49.869 169.07 49.2534 169.539 48.5904C170.007 47.738 170.476 46.8856 170.944 46.0332C171.413 45.1808 171.881 44.3284 172.35 43.476C173.662 41.2977 175.114 39.214 176.708 37.2251C178.301 35.1414 179.8 33.1051 181.206 31.1162C182.518 29.222 183.736 27.3751 184.861 25.5756C185.985 23.6814 187.203 21.7871 188.515 19.8929C189.171 18.9458 189.921 17.904 190.764 16.7674C191.608 15.5362 192.451 14.3523 193.295 13.2158C194.232 12.0792 195.169 11.0374 196.106 10.0903C197.043 9.04848 197.98 8.29079 198.917 7.81723C200.51 7.62781 201.541 7.91194 202.01 8.66963C202.478 9.33261 203.134 9.6641 203.978 9.6641C205.29 9.94824 206.18 10.3744 206.649 10.9427C207.117 11.511 207.586 12.0319 208.054 12.5054C209.273 12.5054 210.303 12.7422 211.147 13.2158C211.99 13.6893 212.834 14.3997 213.677 15.3468C213.302 16.3886 212.787 17.3357 212.131 18.1881C211.569 19.0405 211.053 19.9403 210.585 20.8874C209.835 21.1715 209.273 21.6451 208.898 22.3081C208.617 22.971 208.148 23.5393 207.492 24.0129C206.461 25.6229 205.43 27.233 204.4 28.8431C203.369 30.3585 202.338 31.8265 201.307 33.2472C200.838 33.8155 200.323 34.289 199.761 34.6679C199.198 34.952 198.683 35.4256 198.215 36.0885C198.027 36.3727 197.887 36.7042 197.793 37.083C197.699 37.3671 197.559 37.6513 197.371 37.9354C196.247 39.7349 194.981 41.4871 193.576 43.1919C192.17 44.8967 190.952 46.6962 189.921 48.5904C189.452 49.2534 189.078 49.9637 188.796 50.7214C188.515 51.3844 188.187 52.0474 187.812 52.7104C187.438 53.3733 186.875 54.2258 186.126 55.2676C185.47 56.2147 184.767 57.2092 184.017 58.251C183.361 59.2928 182.752 60.3346 182.19 61.3765C181.721 62.4183 181.487 63.2707 181.487 63.9337C181.581 64.4072 182.19 65.3543 183.314 66.775C184.439 68.1957 185.704 69.711 187.11 71.3211C188.515 72.9312 189.827 74.494 191.046 76.0093C192.357 77.43 193.154 78.2824 193.435 78.5665C193.623 79.0401 194.325 80.0819 195.544 81.692C196.762 83.2074 198.121 84.9122 199.62 86.8064C201.213 88.6059 202.76 90.3581 204.259 92.0629C205.758 93.7677 206.789 94.9989 207.351 95.7566L208.476 97.6035C208.663 97.5088 209.132 96.8458 209.882 95.6146C210.725 94.3833 211.569 93.01 212.412 91.4946C213.255 89.9793 214.005 88.5586 214.661 87.2326C215.411 85.9067 215.879 85.0543 216.067 84.6754C216.348 84.3913 216.816 83.6336 217.472 82.4023C218.128 81.1711 218.831 79.8451 219.581 78.4245C220.424 77.0038 221.127 75.6779 221.689 74.4466C222.345 73.2154 222.72 72.4103 222.814 72.0315H221.127C219.628 72.0315 218.128 72.1262 216.629 72.3156C215.223 72.4103 213.771 72.6944 212.271 73.168C211.615 73.0733 211.053 72.8839 210.585 72.5997C210.116 72.3156 209.554 72.0315 208.898 71.7473C208.617 70.8002 208.476 70.1372 208.476 69.7584C208.57 69.3796 208.57 69.0954 208.476 68.906C208.382 68.5272 208.242 68.243 208.054 68.0536C207.961 67.8642 207.914 67.58 207.914 67.2012C207.914 66.5382 207.82 66.0173 207.633 65.6385C207.445 65.1649 207.258 64.644 207.07 64.0757C207.07 63.6969 207.07 63.318 207.07 62.9392C207.164 62.5603 207.117 62.2289 206.93 61.9447C207.117 60.2399 206.977 59.0087 206.508 58.251C206.508 56.925 206.695 56.0726 207.07 55.6938C207.445 55.3149 207.726 54.7467 207.914 53.989C208.757 54.2731 209.46 54.2258 210.022 53.8469C210.678 53.3733 211.334 53.1366 211.99 53.1366C213.49 53.1366 214.708 52.8998 215.645 52.4262C216.488 52.3315 217.332 52.2842 218.175 52.2842C219.112 52.2842 220.003 52.1895 220.846 52C221.315 51.9053 221.689 51.8106 221.971 51.7159C222.345 51.6212 222.767 51.5265 223.236 51.4318C223.798 51.3371 224.407 51.2897 225.063 51.2897C225.719 51.2897 226.328 51.2897 226.89 51.2897C228.39 51.1003 229.889 51.0056 231.389 51.0056C232.888 50.9109 234.387 50.8161 235.887 50.7214C236.355 50.9109 236.777 51.0529 237.152 51.1476C237.621 51.2423 238.042 51.3844 238.417 51.5738C238.698 51.7633 238.933 52 239.12 52.2842C239.307 52.4736 239.635 52.6157 240.104 52.7104C240.572 53.1839 240.9 53.6575 241.088 54.131C240.9 54.9834 240.947 55.5991 241.228 55.9779C240.76 56.4515 240.479 57.1144 240.385 57.9668C240.385 58.7245 240.338 59.4349 240.244 60.0978C240.9 60.2873 241.463 60.8082 241.931 61.6606C242.4 62.513 242.728 62.9392 242.915 62.9392H243.478Z" fill="white"/>
<path d="M352.418 116.925C351.95 117.398 351.434 117.682 350.872 117.777C350.31 117.872 349.747 117.919 349.185 117.919C347.779 118.582 346.28 118.914 344.687 118.914C343.656 118.345 343.094 118.156 343 118.345C342.906 118.535 342.719 118.724 342.438 118.914C341.032 119.577 339.767 119.908 338.642 119.908C337.518 120.003 336.581 120.287 335.831 120.76C335.081 120.192 334.66 119.34 334.566 118.203C334.566 117.161 334.472 116.262 334.285 115.504C333.816 114.841 333.488 114.036 333.301 113.089C333.113 112.047 332.973 111.005 332.879 109.963C332.785 108.922 332.645 107.927 332.457 106.98C332.364 105.938 332.129 105.038 331.755 104.281C331.661 103.807 331.614 103.381 331.614 103.002C331.708 102.623 331.661 102.197 331.473 101.723C331.567 100.113 331.52 98.8348 331.333 97.8876C331.145 96.9405 330.958 95.9461 330.771 94.9042C330.677 94.336 330.63 93.7203 330.63 93.0574C330.63 92.2997 330.349 91.7314 329.787 91.3526C330.068 90.0266 330.115 89.0321 329.927 88.3692C329.74 87.7062 329.599 87.0906 329.505 86.5223C329.412 85.7646 329.365 84.9596 329.365 84.1072C329.365 83.16 329.271 82.3076 329.084 81.5499C328.521 77.0038 327.912 72.4577 327.256 67.9115C326.6 63.3654 325.991 58.8192 325.429 54.2731C324.867 54.7467 324.445 55.457 324.164 56.4041C323.976 57.3512 323.789 58.2036 323.602 58.9613C323.039 60.6661 322.524 62.4183 322.055 64.2178C321.587 66.0173 321.118 67.7695 320.65 69.4743C320.462 70.232 320.275 71.1317 320.087 72.1735C319.994 73.1206 319.806 73.973 319.525 74.7307C318.588 77.4774 317.745 79.8451 316.995 81.8341C316.339 83.823 315.683 85.8593 315.027 87.943C314.839 89.0795 314.652 90.1687 314.465 91.2105C314.277 92.2523 314.09 93.2941 313.902 94.336C313.809 94.9042 313.668 95.7093 313.481 96.7511C313.293 97.7929 313.106 98.5506 312.918 99.0242C312.731 99.4977 312.544 99.8292 312.356 100.019C312.262 100.208 312.262 100.54 312.356 101.013C311.419 102.434 310.763 103.997 310.388 105.701C310.107 107.406 309.545 109.064 308.701 110.674C308.701 111.81 308.28 112.805 307.436 113.657C306.968 113.752 306.499 113.846 306.031 113.941C305.656 114.036 305.234 114.225 304.765 114.509C304.297 114.32 303.735 114.225 303.079 114.225C302.516 114.131 301.954 114.083 301.392 114.083C300.923 113.989 300.501 113.846 300.127 113.657C299.752 113.373 299.33 113.184 298.862 113.089C298.393 112.521 297.878 112.047 297.315 111.668C296.753 111.195 296.191 110.721 295.628 110.247C295.066 108.827 294.551 107.88 294.082 107.406C293.801 106.364 293.426 105.417 292.958 104.565C292.489 103.618 292.161 102.576 291.974 101.439C291.693 100.397 291.318 99.4504 290.849 98.598C290.474 97.6509 290.053 96.6564 289.584 95.6146C289.397 94.9516 289.162 94.336 288.881 93.7677C288.694 93.1047 288.459 92.4417 288.178 91.7788C288.085 91.0211 287.803 90.074 287.335 88.9374C286.96 87.8009 286.679 86.8064 286.492 85.954C286.492 85.8593 286.304 85.3858 285.929 84.5334C285.648 83.5862 285.32 82.5918 284.945 81.5499C284.664 80.5081 284.336 79.561 283.961 78.7086C283.68 77.8562 283.493 77.3827 283.399 77.2879C283.212 76.8144 283.024 76.3882 282.837 76.0093C282.743 75.5358 282.602 75.0149 282.415 74.4466C282.04 73.2154 281.572 71.9841 281.009 70.7529C280.447 69.4269 279.885 68.1957 279.323 67.0591C278.854 66.112 278.526 65.2123 278.339 64.3599C278.151 63.4127 277.917 62.513 277.636 61.6606C277.448 61.187 277.261 60.7608 277.073 60.382C276.98 60.0031 276.839 59.5769 276.652 59.1034C276.464 58.5351 276.277 57.9668 276.089 57.3986C275.902 56.7356 275.715 56.0726 275.527 55.4096C275.059 55.5991 274.824 56.0253 274.824 56.6882C274.918 57.2565 274.918 57.7774 274.824 58.251C274.637 59.2928 274.543 60.3346 274.543 61.3765C274.543 62.3236 274.496 63.318 274.403 64.3599C274.215 65.4964 274.028 66.5856 273.84 67.6274C273.653 68.6692 273.512 69.711 273.419 70.7529C273.419 73.3101 273.278 75.8673 272.997 78.4245C272.81 80.6975 272.575 83.018 272.294 85.3858C272.013 87.6588 271.826 90.0266 271.732 92.4891C271.732 94.2886 271.544 96.0881 271.17 97.8876C270.795 99.5924 270.701 101.392 270.888 103.286C270.701 103.665 270.607 103.949 270.607 104.139C270.607 104.328 270.607 104.612 270.607 104.991C270.607 105.465 270.56 105.985 270.467 106.554C270.467 107.122 270.467 107.643 270.467 108.116C270.467 108.969 270.56 109.537 270.748 109.821C270.467 110.674 270.326 111.621 270.326 112.663C270.326 113.61 270.326 114.557 270.326 115.504C270.139 115.883 269.998 116.262 269.904 116.64C269.904 117.019 269.764 117.398 269.483 117.777C269.576 119.387 269.108 120.192 268.077 120.192C267.796 120.192 267.468 120.097 267.093 119.908C266.812 119.813 266.578 119.624 266.39 119.34C265.359 119.434 264.75 119.198 264.563 118.629C264.469 118.061 264.188 117.824 263.719 117.919C262.595 118.393 261.939 118.535 261.751 118.345C261.658 118.156 261.377 118.108 260.908 118.203C260.158 117.446 259.643 117.114 259.362 117.209C259.174 117.303 258.987 117.351 258.8 117.351C257.956 117.067 257.488 117.019 257.394 117.209C257.3 117.303 257.113 117.351 256.832 117.351C256.363 116.877 255.707 116.64 254.864 116.64C254.114 116.64 253.458 116.593 252.896 116.498C252.802 116.12 252.708 115.788 252.615 115.504C252.615 115.125 252.615 114.699 252.615 114.225C252.615 113.657 252.615 113.136 252.615 112.663C252.708 112.094 252.755 111.526 252.755 110.958C252.755 110.484 252.708 110.011 252.615 109.537C252.615 108.969 252.615 108.353 252.615 107.69C252.615 107.027 252.661 106.412 252.755 105.843C252.849 105.18 252.896 104.47 252.896 103.712C252.896 103.428 252.849 103.191 252.755 103.002C252.661 102.718 252.615 102.386 252.615 102.008C253.177 100.776 253.411 99.8292 253.317 99.1662C253.317 98.4086 253.364 97.6982 253.458 97.0352C253.645 95.4251 253.786 93.8624 253.88 92.347C254.067 90.7369 254.254 89.1268 254.442 87.5168C254.442 84.8648 254.489 82.6865 254.582 80.9817C254.77 79.1822 255.004 77.3827 255.285 75.5831C255.473 74.7307 255.613 73.9257 255.707 73.168C255.894 72.4103 256.082 71.6053 256.269 70.7529C256.457 69.3322 256.55 67.8642 256.55 66.3488C256.644 64.7387 256.785 63.176 256.972 61.6606C257.16 59.2928 257.394 56.9724 257.675 54.6993C257.956 52.3315 258.19 50.0111 258.378 47.738C258.565 45.9385 258.753 44.1864 258.94 42.4816C259.221 40.682 259.362 38.9772 259.362 37.3671C259.362 36.5147 259.456 35.4256 259.643 34.0996C259.924 32.7737 260.111 31.6371 260.205 30.69C260.393 28.4169 260.533 26.1912 260.627 24.0129C260.814 21.8345 260.908 19.6561 260.908 17.4778V15.915C260.908 15.7256 261.002 15.5362 261.189 15.3468C261.377 15.1574 261.47 14.8259 261.47 14.3523C261.47 13.4999 261.658 12.9316 262.033 12.6475C262.501 12.2687 262.876 11.7004 263.157 10.9427C263.626 10.9427 264.141 10.9901 264.703 11.0848C265.359 11.1795 265.828 11.4636 266.109 11.9372C266.765 11.7478 267.421 11.653 268.077 11.653C268.733 11.653 269.295 11.4163 269.764 10.9427C270.326 10.9427 270.748 11.0848 271.029 11.3689C271.31 11.653 271.685 11.8898 272.154 12.0792C272.528 11.8898 272.903 11.7478 273.278 11.653C273.653 11.4636 274.028 11.2742 274.403 11.0848C274.684 11.2742 274.871 11.511 274.965 11.7951C275.152 11.9845 275.387 12.1266 275.668 12.2213C277.073 11.8425 278.011 11.7951 278.479 12.0792C278.667 12.4581 278.76 12.8369 278.76 13.2158C278.854 13.5946 278.948 13.9735 279.041 14.3523C279.979 15.2994 280.588 16.3886 280.869 17.6198C281.15 18.7564 281.665 19.7982 282.415 20.7453C282.602 21.3136 282.79 21.8819 282.977 22.4501C283.258 23.0184 283.493 23.6814 283.68 24.4391L284.102 26.1439C284.477 27.091 284.945 28.2275 285.508 29.5535C285.976 31.353 286.398 33.1999 286.773 35.0941C287.147 36.9883 287.757 38.7405 288.6 40.3506C288.694 40.9188 288.834 41.6292 289.022 42.4816C289.303 43.2392 289.537 43.9022 289.725 44.4705C290.381 46.0806 291.037 47.6907 291.693 49.3008C292.442 50.8161 293.098 52.4736 293.66 54.2731C294.223 56.0726 294.691 57.9195 295.066 59.8137C295.535 61.7079 296.097 63.5548 296.753 65.3543C297.315 67.0591 297.737 68.2904 298.018 69.0481C298.299 69.8058 298.674 70.5634 299.143 71.3211C299.143 71.6053 299.19 72.0788 299.283 72.7418C299.471 73.4048 299.705 74.1151 299.986 74.8728C300.267 75.5358 300.548 76.1988 300.829 76.8617C301.111 77.43 301.392 77.7615 301.673 77.8562C301.954 77.6668 302.095 77.3827 302.095 77.0038C302.188 76.625 302.376 76.2935 302.657 76.0093C302.751 74.9675 302.891 73.6889 303.079 72.1735C303.36 70.6582 303.735 69.4269 304.203 68.4798C304.203 68.0062 304.297 67.1538 304.484 65.9226C304.765 64.5966 305.093 63.2233 305.468 61.8027C305.843 60.2873 306.171 58.914 306.452 57.6827C306.827 56.4515 307.155 55.6938 307.436 55.4096C307.624 54.1784 307.764 53.4207 307.858 53.1366C308.045 52.8524 308.233 52.6157 308.42 52.4262C308.514 51.6685 308.701 50.9582 308.982 50.2952C309.264 49.6323 309.451 48.9219 309.545 48.1642C309.732 46.5541 309.966 45.2282 310.248 44.1864C310.529 43.1445 310.904 41.8659 311.372 40.3506C311.747 39.0246 312.075 37.6986 312.356 36.3727C312.731 34.952 313.153 33.5787 313.621 32.2527C314.746 28.6537 315.73 25.4809 316.573 22.7343C317.51 19.8929 318.635 17.1463 319.947 14.4944C320.228 13.642 320.462 13.1211 320.65 12.9316C320.837 12.7422 321.024 12.5528 321.212 12.3634C321.962 12.0792 322.711 11.9372 323.461 11.9372C324.304 11.9372 325.148 11.9845 325.991 12.0792C326.928 11.7004 327.631 11.2742 328.1 10.8006C328.475 11.2742 329.037 11.511 329.787 11.511C330.724 11.511 331.38 11.2268 331.755 10.6586C332.129 10.848 332.411 10.8953 332.598 10.8006C332.879 10.7059 333.254 10.7533 333.723 10.9427C333.91 10.7533 334.144 10.5639 334.425 10.3744C334.706 10.0903 334.988 9.94824 335.269 9.94824C336.018 10.8953 336.581 11.653 336.956 12.2213C337.424 12.6949 337.752 13.2631 337.94 13.9261C338.221 14.7785 338.361 15.7256 338.361 16.7674C338.455 17.7146 338.736 18.6143 339.205 19.4667C339.111 20.698 339.158 22.5922 339.345 25.1494C339.626 27.6119 339.908 30.2638 340.189 33.1051C340.564 35.8518 340.938 38.409 341.313 40.7768C341.688 43.1445 342.016 44.6126 342.297 45.1808C342.203 46.4121 342.25 47.4539 342.438 48.3063C342.625 49.1587 342.719 50.0111 342.719 50.8635C342.719 51.1476 342.766 51.7633 342.859 52.7104C342.953 53.5628 343.047 54.5099 343.141 55.5517C343.234 56.4988 343.328 57.4459 343.422 58.393C343.609 59.2454 343.75 59.8611 343.843 60.2399C343.843 61.9447 344.125 63.2707 344.687 64.2178C345.155 66.5856 345.53 68.9534 345.811 71.3211C346.186 73.6889 346.514 76.1041 346.795 78.5665C346.983 79.7978 347.077 80.9817 347.077 82.1182C347.17 83.2548 347.311 84.4386 347.498 85.6699C347.592 86.1434 347.686 86.617 347.779 87.0906C347.967 87.5641 348.107 88.0377 348.201 88.5112C348.388 89.4583 348.529 90.3581 348.623 91.2105C348.716 92.0629 348.857 92.9153 349.044 93.7677C349.138 94.2413 349.279 94.7622 349.466 95.3304C349.654 95.804 349.654 96.3249 349.466 96.8932C349.654 97.5562 349.7 98.2665 349.607 99.0242C349.607 99.7819 349.794 100.445 350.169 101.013C350.169 103.002 350.31 104.754 350.591 106.27C350.684 107.406 350.966 108.543 351.434 109.679C351.622 110.816 351.762 112 351.856 113.231C352.043 114.462 352.231 115.693 352.418 116.925Z" fill="white"/>
<path d="M426.779 48.8746C425.935 50.6741 424.764 52.3789 423.265 53.989C421.859 55.5991 420.5 57.1144 419.188 58.5351C418.157 59.5769 417.267 60.7135 416.517 61.9447C415.768 63.176 414.924 64.3125 413.987 65.3543C413.237 66.2067 412.488 67.0118 411.738 67.7695C410.988 68.4324 410.285 69.1901 409.629 70.0425C409.161 70.4214 408.692 70.8002 408.224 71.1791C407.849 71.5579 407.474 72.0315 407.099 72.5997C408.505 75.6305 410.145 78.3771 412.019 80.8396C413.987 83.3021 416.002 85.7646 418.064 88.2271C419.094 89.4583 420.125 90.6422 421.156 91.7788C422.187 92.8206 423.077 93.9571 423.827 95.1884C424.483 96.609 425.139 97.6982 425.795 98.4559C426.545 99.1189 427.201 99.8292 427.763 100.587C428.325 101.534 428.794 102.386 429.169 103.144C429.637 103.807 430.246 104.47 430.996 105.133C430.996 105.607 431.277 106.08 431.839 106.554C432.402 106.933 432.776 107.359 432.964 107.832C432.964 108.306 432.964 108.685 432.964 108.969C433.058 109.253 433.104 109.49 433.104 109.679C432.823 110.437 432.308 111.1 431.558 111.668C430.902 112.142 430.293 112.663 429.731 113.231C428.794 113.231 427.997 113.515 427.341 114.083C426.685 114.652 425.795 114.936 424.67 114.936C424.202 115.315 423.827 115.741 423.546 116.214C423.265 116.593 422.89 116.972 422.421 117.351C421.672 117.351 420.969 117.54 420.313 117.919C419.75 118.393 419.094 118.724 418.345 118.914C417.408 118.345 416.658 117.635 416.096 116.783C415.533 115.835 414.784 115.125 413.847 114.652C413.753 114.178 413.565 113.799 413.284 113.515C413.097 113.136 412.909 112.757 412.722 112.378C411.129 110.579 409.629 108.685 408.224 106.696C406.818 104.707 405.412 102.718 404.007 100.729C403.257 99.8766 402.46 99.0715 401.617 98.3138C400.867 97.4614 400.118 96.5617 399.368 95.6146C398.899 95.0463 398.431 94.3833 397.962 93.6256C397.494 92.8679 396.978 92.1576 396.416 91.4946C395.76 90.9264 395.198 90.2634 394.729 89.5057C394.261 88.748 393.698 88.1324 393.042 87.6588C392.199 88.1324 391.449 88.748 390.793 89.5057C390.137 90.2634 389.388 90.9264 388.544 91.4946C387.795 92.1576 387.045 92.8206 386.295 93.4836C385.639 94.1465 384.936 94.7622 384.187 95.3304C383.999 97.5088 383.905 99.6398 383.905 101.723C383.905 103.712 383.905 105.701 383.905 107.69C383.905 109.3 383.859 110.863 383.765 112.378C383.765 113.799 383.577 115.267 383.203 116.783C382.734 116.877 382.265 116.64 381.797 116.072C381.422 115.409 381 115.03 380.532 114.936C380.157 115.03 379.829 115.22 379.548 115.504C379.36 115.788 379.032 115.835 378.564 115.646C378.095 116.12 377.392 116.546 376.455 116.925C375.987 116.925 375.471 117.019 374.909 117.209C374.347 117.303 373.831 117.351 373.363 117.351C372.613 117.351 372.098 117.256 371.817 117.067C370.879 117.73 370.083 118.061 369.427 118.061C368.865 118.156 368.396 118.203 368.021 118.203C367.834 117.54 367.646 116.925 367.459 116.356C367.272 115.693 367.131 114.983 367.037 114.225C366.756 113.846 366.522 113.42 366.334 112.947C366.241 112.473 366.1 112 365.913 111.526C366.006 111.242 366.053 110.91 366.053 110.532C366.053 110.153 366.053 109.774 366.053 109.395C366.053 107.785 366.006 106.222 365.913 104.707C365.819 103.191 365.866 101.629 366.053 100.019C365.866 99.5451 365.725 99.0715 365.632 98.598C365.538 98.1244 365.491 97.6509 365.491 97.1773C365.491 96.8932 365.491 96.5617 365.491 96.1828C365.585 95.804 365.725 95.5199 365.913 95.3304C365.632 94.0992 365.444 92.8206 365.35 91.4946C365.35 90.074 365.35 88.748 365.35 87.5168C365.35 86.8538 365.397 86.1908 365.491 85.5278C365.678 84.7701 365.772 84.0124 365.772 83.2548C365.772 81.6447 365.678 80.0819 365.491 78.5665C365.304 77.0512 365.21 75.5358 365.21 74.0204C365.304 72.9786 365.35 72.1735 365.35 71.6053C365.35 71.037 365.397 70.4687 365.491 69.9005C365.585 69.3322 365.538 68.7639 365.35 68.1957C365.444 67.7221 365.538 67.3906 365.632 67.2012C365.819 66.9171 365.913 66.5382 365.913 66.0647C365.913 64.8334 365.913 63.6495 365.913 62.513C366.006 61.2817 366.053 60.0031 366.053 58.6772C366.053 57.7301 366.053 56.8303 366.053 55.9779C366.147 55.0308 366.194 54.0363 366.194 52.9945C366.194 52.1421 366.241 51.3371 366.334 50.5794C366.522 49.8217 366.662 49.064 366.756 48.3063C366.85 47.4539 366.897 46.6488 366.897 45.8912C366.897 45.0388 366.897 44.2337 366.897 43.476C366.897 41.4871 366.897 39.4981 366.897 37.5092C366.897 35.4256 366.803 33.3893 366.616 31.4003C366.522 30.9268 366.428 30.4059 366.334 29.8376C366.241 29.2693 366.194 28.7011 366.194 28.1328C366.006 26.3333 365.866 24.4864 365.772 22.5922C365.678 20.698 365.491 18.8037 365.21 16.9095C365.397 16.6254 365.491 16.3412 365.491 16.0571C365.491 15.6783 365.491 15.3468 365.491 15.0626C365.491 14.5891 365.491 14.1629 365.491 13.784C365.491 13.3105 365.444 12.8369 365.35 12.3634C365.538 12.174 365.725 11.9845 365.913 11.7951C366.1 11.511 366.288 11.2742 366.475 11.0848C367.037 11.0848 367.6 11.1321 368.162 11.2268C368.818 11.2268 369.38 11.4163 369.849 11.7951C370.317 11.6057 370.833 11.4163 371.395 11.2268C372.051 10.9427 372.613 10.8006 373.082 10.8006C373.831 10.8006 374.394 10.9901 374.769 11.3689C375.237 11.1795 375.471 10.9901 375.471 10.8006C375.565 10.5165 375.94 10.3744 376.596 10.3744C377.814 10.2797 378.658 10.2324 379.126 10.2324C379.688 10.2324 380.204 10.185 380.672 10.0903C380.954 10.2797 381.188 10.5165 381.375 10.8006C381.563 11.0848 381.75 11.3689 381.937 11.653C383.999 12.4107 385.639 13.4999 386.857 14.9206C388.169 16.2465 389.622 17.3831 391.215 18.3302C391.59 18.6143 391.965 18.8511 392.34 19.0405C392.714 19.2299 393.089 19.4194 393.464 19.6088C394.308 20.1771 395.151 20.7927 395.994 21.4557C396.838 22.1186 397.728 22.6869 398.665 23.1605C399.602 23.634 400.118 23.9181 400.211 24.0129C400.399 24.0129 400.539 24.1076 400.633 24.297C402.695 25.0547 404.522 26.0965 406.115 27.4225C407.802 28.6537 409.583 29.7902 411.457 30.8321C412.113 31.2109 412.909 31.5898 413.847 31.9686C414.877 32.3474 415.861 32.7737 416.798 33.2472C417.829 33.6261 418.766 34.0523 419.61 34.5258C420.547 34.9994 421.25 35.5203 421.718 36.0885C422.749 37.1304 423.639 37.8881 424.389 38.3616C425.233 38.7405 426.029 39.214 426.779 39.7823L426.919 43.6181C426.919 44.2811 426.826 44.8967 426.638 45.465C426.545 46.0332 426.498 46.6488 426.498 47.3118C426.498 47.7854 426.591 48.3063 426.779 48.8746ZM407.521 45.1808C406.49 44.6126 405.459 44.0916 404.428 43.6181C403.398 43.0498 402.507 42.2921 401.758 41.345C401.102 41.1556 399.93 40.7294 398.243 40.0664C396.557 39.3087 394.823 38.551 393.042 37.7933C391.356 36.9409 389.762 36.2306 388.263 35.6623C386.857 34.9994 386.061 34.6679 385.873 34.6679C385.592 34.7626 385.452 35.3782 385.452 36.5147C385.452 37.6513 385.452 38.8825 385.452 40.2085C385.452 41.5344 385.452 42.813 385.452 44.0443C385.452 45.2755 385.452 46.0332 385.452 46.3174C385.452 48.1169 385.405 49.869 385.311 51.5738C385.217 53.2786 385.077 55.0308 384.889 56.8303C384.702 57.1144 384.561 57.3986 384.468 57.6827C384.374 57.8721 384.28 58.1089 384.187 58.393C383.999 59.719 383.905 61.4712 383.905 63.6495C383.905 65.8279 383.905 67.58 383.905 68.906C383.905 69.569 383.905 70.1846 383.905 70.7529C383.905 71.3211 383.952 71.9841 384.046 72.7418C384.515 72.7418 384.843 72.6471 385.03 72.4577C385.217 72.1735 385.545 71.9368 386.014 71.7473C387.232 70.4214 388.451 69.1428 389.669 67.9115C390.887 66.6803 392.152 65.4017 393.464 64.0757C394.026 63.5075 394.589 62.8918 395.151 62.2289C395.713 61.5659 396.322 60.9976 396.978 60.524C397.447 59.9558 397.869 59.4349 398.243 58.9613C398.618 58.393 399.04 57.8721 399.509 57.3986C400.821 55.9779 402.179 54.6046 403.585 53.2786C404.991 51.858 406.162 50.2952 407.099 48.5904C407.755 48.1169 408.364 47.3592 408.927 46.3174C408.271 46.2226 407.802 45.8438 407.521 45.1808Z" fill="white"/>
</g>
<defs>
<clipPath id="clip0">
<rect width="433" height="129" fill="white"/>
</clipPath>
</defs>
</svg>
